<svg xmlns="http://www.w3.org/2000/svg" width="1024" height="1024" viewBox="0 0 64 64">
<defs><radialGradient id="bg" cx="0.5" cy="0.7" r="0.75"><stop offset="0" stop-color="#0E2A5A"/><stop offset="1" stop-color="#030816"/></radialGradient></defs>
<rect width="64" height="64" fill="url(#bg)"/>
<g transform="translate(32 32) scale(1.05) translate(-31.7 -38.5)"><circle cx="10.00" cy="34.00" r="1.50" fill="#7FE3FF" opacity="0.55"/><circle cx="13.10" cy="36.46" r="1.50" fill="#7FE3FF" opacity="0.90"/><circle cx="16.20" cy="38.61" r="1.50" fill="#7FE3FF" opacity="0.99"/><circle cx="19.30" cy="40.16" r="1.50" fill="#7FE3FF" opacity="0.74"/><circle cx="22.40" cy="40.94" r="1.50" fill="#7FE3FF" opacity="0.35"/><circle cx="25.50" cy="40.82" r="1.50" fill="#7FE3FF" opacity="0.15"/><circle cx="28.60" cy="39.84" r="1.50" fill="#7FE3FF" opacity="0.20"/><circle cx="31.70" cy="38.11" r="1.50" fill="#7FE3FF" opacity="0.56"/><circle cx="34.80" cy="35.86" r="1.50" fill="#7FE3FF" opacity="0.91"/><circle cx="37.90" cy="33.37" r="1.50" fill="#7FE3FF" opacity="0.99"/><circle cx="41.00" cy="30.96" r="1.50" fill="#7FE3FF" opacity="0.74"/><circle cx="44.10" cy="28.94" r="1.50" fill="#7FE3FF" opacity="0.34"/><circle cx="47.20" cy="27.56" r="1.50" fill="#7FE3FF" opacity="0.15"/><circle cx="50.30" cy="27.01" r="1.50" fill="#7FE3FF" opacity="0.21"/><circle cx="53.40" cy="27.34" r="1.50" fill="#7FE3FF" opacity="0.57"/><circle cx="10.00" cy="39.13" r="1.32" fill="#7FE3FF" opacity="0.77"/><circle cx="13.10" cy="41.22" r="1.32" fill="#7FE3FF" opacity="0.81"/><circle cx="16.20" cy="42.69" r="1.32" fill="#7FE3FF" opacity="0.58"/><circle cx="19.30" cy="43.37" r="1.32" fill="#7FE3FF" opacity="0.26"/><circle cx="22.40" cy="43.15" r="1.32" fill="#7FE3FF" opacity="0.15"/><circle cx="25.50" cy="42.08" r="1.32" fill="#7FE3FF" opacity="0.19"/><circle cx="28.60" cy="40.28" r="1.32" fill="#7FE3FF" opacity="0.50"/><circle cx="31.70" cy="37.98" r="1.32" fill="#7FE3FF" opacity="0.77"/><circle cx="34.80" cy="35.49" r="1.32" fill="#7FE3FF" opacity="0.81"/><circle cx="37.90" cy="33.11" r="1.32" fill="#7FE3FF" opacity="0.58"/><circle cx="41.00" cy="31.15" r="1.32" fill="#7FE3FF" opacity="0.25"/><circle cx="44.10" cy="29.86" r="1.32" fill="#7FE3FF" opacity="0.15"/><circle cx="47.20" cy="29.40" r="1.32" fill="#7FE3FF" opacity="0.20"/><circle cx="50.30" cy="29.84" r="1.32" fill="#7FE3FF" opacity="0.51"/><circle cx="53.40" cy="31.11" r="1.32" fill="#7FE3FF" opacity="0.78"/><circle cx="10.00" cy="43.82" r="1.14" fill="#7FE3FF" opacity="0.63"/><circle cx="13.10" cy="45.21" r="1.14" fill="#7FE3FF" opacity="0.43"/><circle cx="16.20" cy="45.79" r="1.14" fill="#7FE3FF" opacity="0.18"/><circle cx="19.30" cy="45.47" r="1.14" fill="#7FE3FF" opacity="0.15"/><circle cx="22.40" cy="44.31" r="1.14" fill="#7FE3FF" opacity="0.18"/><circle cx="25.50" cy="42.44" r="1.14" fill="#7FE3FF" opacity="0.43"/><circle cx="28.60" cy="40.10" r="1.14" fill="#7FE3FF" opacity="0.63"/><circle cx="31.70" cy="37.60" r="1.14" fill="#7FE3FF" opacity="0.63"/><circle cx="34.80" cy="35.26" r="1.14" fill="#7FE3FF" opacity="0.43"/><circle cx="37.90" cy="33.36" r="1.14" fill="#7FE3FF" opacity="0.18"/><circle cx="41.00" cy="32.16" r="1.14" fill="#7FE3FF" opacity="0.15"/><circle cx="44.10" cy="31.80" r="1.14" fill="#7FE3FF" opacity="0.18"/><circle cx="47.20" cy="32.34" r="1.14" fill="#7FE3FF" opacity="0.43"/><circle cx="50.30" cy="33.70" r="1.14" fill="#7FE3FF" opacity="0.63"/><circle cx="53.40" cy="35.71" r="1.14" fill="#7FE3FF" opacity="0.63"/><circle cx="10.00" cy="47.72" r="0.96" fill="#7FE3FF" opacity="0.30"/><circle cx="13.10" cy="48.20" r="0.96" fill="#7FE3FF" opacity="0.15"/><circle cx="16.20" cy="47.78" r="0.96" fill="#7FE3FF" opacity="0.15"/><circle cx="19.30" cy="46.53" r="0.96" fill="#7FE3FF" opacity="0.15"/><circle cx="22.40" cy="44.59" r="0.96" fill="#7FE3FF" opacity="0.34"/><circle cx="25.50" cy="42.22" r="0.96" fill="#7FE3FF" opacity="0.48"/><circle cx="28.60" cy="39.72" r="0.96" fill="#7FE3FF" opacity="0.46"/><circle cx="31.70" cy="37.41" r="0.96" fill="#7FE3FF" opacity="0.30"/><circle cx="34.80" cy="35.59" r="0.96" fill="#7FE3FF" opacity="0.15"/><circle cx="37.90" cy="34.47" r="0.96" fill="#7FE3FF" opacity="0.15"/><circle cx="41.00" cy="34.22" r="0.96" fill="#7FE3FF" opacity="0.15"/><circle cx="44.10" cy="34.86" r="0.96" fill="#7FE3FF" opacity="0.34"/><circle cx="47.20" cy="36.30" r="0.96" fill="#7FE3FF" opacity="0.48"/><circle cx="50.30" cy="38.37" r="0.96" fill="#7FE3FF" opacity="0.46"/><circle cx="53.40" cy="40.80" r="0.96" fill="#7FE3FF" opacity="0.29"/><circle cx="10.00" cy="50.60" r="0.78" fill="#7FE3FF" opacity="0.15"/><circle cx="13.10" cy="50.08" r="0.78" fill="#7FE3FF" opacity="0.15"/><circle cx="16.20" cy="48.73" r="0.78" fill="#7FE3FF" opacity="0.15"/><circle cx="19.30" cy="46.74" r="0.78" fill="#7FE3FF" opacity="0.23"/><circle cx="22.40" cy="44.34" r="0.78" fill="#7FE3FF" opacity="0.32"/><circle cx="25.50" cy="41.84" r="0.78" fill="#7FE3FF" opacity="0.29"/><circle cx="28.60" cy="39.57" r="0.78" fill="#7FE3FF" opacity="0.18"/><circle cx="31.70" cy="37.82" r="0.78" fill="#7FE3FF" opacity="0.15"/><circle cx="34.80" cy="36.80" r="0.78" fill="#7FE3FF" opacity="0.15"/><circle cx="37.90" cy="36.65" r="0.78" fill="#7FE3FF" opacity="0.15"/><circle cx="41.00" cy="37.38" r="0.78" fill="#7FE3FF" opacity="0.24"/><circle cx="44.10" cy="38.91" r="0.78" fill="#7FE3FF" opacity="0.32"/><circle cx="47.20" cy="41.04" r="0.78" fill="#7FE3FF" opacity="0.29"/><circle cx="50.30" cy="43.49" r="0.78" fill="#7FE3FF" opacity="0.18"/><circle cx="53.40" cy="45.96" r="0.78" fill="#7FE3FF" opacity="0.15"/></g>
</svg>